# xmcd CD database file
#
# Track frame offsets:
#	150
#	21137
#	38782
#	57402
#	73532
#	93287
#	115750
#	141012
#	162532
#	179612
#	202485
#	223042
#	240387
#
# Disc length: 3445 seconds
#
# Revision: 0
# Processed by: cddbd v1.5.2PL0 Copyright (c) Steve Scherf et al.
# Submitted via: CDex 1.70beta2
#
DISCID=c00d730d
DTITLE=Various Artist - new dawn
DYEAR=1990
DGENRE=New Age
TTITLE0=Sometimes
TTITLE1=Sleeping
TTITLE2=Seasonal Adjustment
TTITLE3=Barriers
TTITLE4=Ppening
TTITLE5=Timelss
TTITLE6=Smnambulia
TTITLE7=Turn Around
TTITLE8=Highlight
TTITLE9=Running out of Time
TTITLE10=Warning Winds
TTITLE11=Rain
TTITLE12=Flight of Fantasy
EXTD=YEAR: 1990
EXTT0=
EXTT1=
EXTT2=
EXTT3=
EXTT4=
EXTT5=
EXTT6=
EXTT7=
EXTT8=
EXTT9=
EXTT10=
EXTT11=
EXTT12=
PLAYORDER=
